<svg width="67" height="42" viewBox="0 0 67 42" fill="none" xmlns="http://www.w3.org/2000/svg">
<g clip-path="url(#clip0_209_40)">
<path d="M45.0353 5.16294C45.8331 4.27651 46.7195 3.54521 47.6281 2.96903C49.2236 1.9718 50.9079 1.43994 52.6364 1.43994V15.9108C51.3732 11.523 48.6475 7.75573 45.0353 5.16294ZM66.5533 41.4399H15.2957C6.87461 41.4399 0.0712891 34.6144 0.0712891 26.2155C0.0712891 18.1712 6.3206 11.5673 14.232 11.0133V1.43994C16.0048 1.43994 17.7555 1.94964 19.3954 2.96903C20.304 3.52305 21.1904 4.25435 21.9882 5.09645C25.2458 2.81391 29.1904 1.48426 33.4674 1.48426C33.4674 10.7252 30.1433 21.4732 19.3289 21.4953H33.3566C32.9577 19.7003 31.3178 18.3707 29.3677 18.3485H37.5228C35.5727 18.3485 33.9328 19.7003 33.5339 21.5175H46.6087C49.2236 21.5175 51.8164 22.0272 54.2541 23.0466C56.6696 24.0438 58.8857 25.5286 60.725 27.3679C62.5865 29.2294 64.0491 31.4233 65.0464 33.8388C66.0436 36.2322 66.5533 38.825 66.5533 41.4399ZM22.8525 11.2793C23.1849 12.1435 24.0713 13.1186 25.3123 13.8277C26.5533 14.5369 27.8386 14.825 28.7472 14.692C28.4148 13.8277 27.5284 12.8527 26.2874 12.1435C25.0464 11.4344 23.761 11.1463 22.8525 11.2793ZM41.5117 13.8277C40.2707 14.5369 38.9854 14.825 38.0768 14.692C38.4092 13.8277 39.2957 12.8527 40.5367 12.1435C41.7777 11.4344 43.063 11.1463 43.9716 11.2793C43.6613 12.1435 42.7527 13.1186 41.5117 13.8277Z" fill="white"/>
</g>
<defs>
<clipPath id="clip0_209_40">
<rect width="67" height="41" fill="white" transform="translate(0 0.5)"/>
</clipPath>
</defs>
</svg>
