<svg width="52" height="52" viewBox="0 0 52 52" fill="none" xmlns="http://www.w3.org/2000/svg">
<rect width="52" height="52" rx="8" fill="#40404B"/>
<g clip-path="url(#clip0_212_6)">
<path fill-rule="evenodd" clip-rule="evenodd" d="M34.0406 32.5625C32.8508 30.5055 31.0172 29.0305 28.8773 28.3313C31.053 27.0361 32.0951 24.447 31.4235 22.0057C30.7518 19.5645 28.5319 17.8729 26 17.8729C23.4681 17.8729 21.2482 19.5645 20.5765 22.0057C19.9049 24.447 20.947 27.0361 23.1227 28.3313C20.9828 29.0297 19.1492 30.5047 17.9594 32.5625C17.8406 32.7562 17.8363 32.9991 17.9481 33.1969C18.0599 33.3947 18.2703 33.5162 18.4975 33.5142C18.7247 33.5123 18.933 33.3872 19.0414 33.1875C20.5133 30.6438 23.1148 29.125 26 29.125C28.8852 29.125 31.4867 30.6438 32.9586 33.1875C33.067 33.3872 33.2753 33.5123 33.5025 33.5142C33.7297 33.5162 33.9401 33.3947 34.0519 33.1969C34.1637 32.9991 34.1594 32.7562 34.0406 32.5625ZM21.625 23.5C21.625 21.0838 23.5838 19.125 26 19.125C28.4162 19.125 30.375 21.0838 30.375 23.5C30.375 25.9162 28.4162 27.875 26 27.875C23.5848 27.8724 21.6276 25.9152 21.625 23.5Z" fill="white"/>
</g>
<defs>
<clipPath id="clip0_212_6">
<rect width="20" height="20" fill="white" transform="translate(16 16)"/>
</clipPath>
</defs>
</svg>
